<svg xmlns="http://www.w3.org/2000/svg" version="1.1" xmlns:xlink="http://www.w3.org/1999/xlink" xmlns:svgjs="http://svgjs.dev/svgjs" width="2000" height="1250" viewBox="0 0 2000 1250"><g transform="matrix(1,0,0,1,0,0)"><svg viewBox="0 0 512 320" data-background-color="#7902f5" preserveAspectRatio="xMidYMid meet" height="1250" width="2000" xmlns="http://www.w3.org/2000/svg" xmlns:xlink="http://www.w3.org/1999/xlink"><g id="tight-bounds" transform="matrix(1,0,0,1,0,0)"><svg viewBox="0 0 512 320" height="320" width="512"><g><svg></svg></g><g><svg viewBox="0 0 512 320" height="320" width="512"><g><path transform="translate(256,176.89165) scale(176.89165,176.89165)" d="M-0.588 0.809l-0.363-1.118 0.951-0.691 0.951 0.691-0.363 1.118z" fill="#000000" fill-rule="nonzero" stroke="none" stroke-width="1" stroke-linecap="butt" stroke-linejoin="miter" stroke-miterlimit="10" stroke-dasharray="" stroke-dashoffset="0" font-family="none" font-weight="none" font-size="none" text-anchor="none" style="mix-blend-mode: normal" data-fill-palette-color="tertiary"></path></g><g transform="matrix(1,0,0,1,153.6,135.79693121624695)"><svg viewBox="0 0 204.8 48.40613756750612" height="48.40613756750612" width="204.8"><g><svg viewBox="0 0 307.29031923100916 72.63055403251514" height="48.40613756750612" width="204.8"><g transform="matrix(1,0,0,1,102.49031923100917,10.037941982786101)"><svg viewBox="0 0 204.8 52.55467006694293" height="52.55467006694293" width="204.8"><g id="textblocktransform"><svg viewBox="0 0 204.8 52.55467006694293" height="52.55467006694293" width="204.8" id="textblock"><g><svg viewBox="0 0 204.8 52.55467006694293" height="52.55467006694293" width="204.8"><g transform="matrix(1,0,0,1,0,0)"><svg width="204.8" viewBox="1.95 -38.95 156.83 40.25" height="52.55467006694293" data-palette-color="#7902f5"><path d="M5.85 1.1Q4.05 1.1 2.75 0.45L2.75 0.45Q1.95 0 1.95-0.6L1.95-0.6Q1.95-1.2 2.25-1.58 2.55-1.95 3.1-1.95L3.1-1.95Q3.6-1.95 4.55-1.55L4.55-1.55Q5.6-1.15 5.85-1.15L5.85-1.15Q6.8-1.15 7.58-1.98 8.35-2.8 8.8-4.15L8.8-4.15Q9.7-6.65 9.7-8.65L9.7-8.65Q9.7-10.8 9.03-13.18 8.35-15.55 7.2-17.8L7.2-17.8 6.4-19.4Q5.15-21.9 4.48-23.35 3.8-24.8 3.3-26.5L3.3-26.5Q2.55-28.9 2.55-31.15L2.55-31.15Q2.55-32.95 3.18-34.55 3.8-36.15 5.05-37.25L5.05-37.25Q6.3-38.45 8.15-38.45L8.15-38.45Q9.05-38.45 9.9-37.93 10.75-37.4 11.1-36.6L11.1-36.6 10.25-35.55Q8.95-35.55 8.3-36.05L8.3-36.05Q7.4-35.95 6.73-35.18 6.05-34.4 5.7-33.4L5.7-33.4Q5.4-32.45 5.4-31.5L5.4-31.5Q5.4-29.6 5.93-27.63 6.45-25.65 7.3-23.9L7.3-23.9 10.8-16.9Q11.65-15.1 12.15-12.85 12.65-10.6 12.65-8.35L12.65-8.35Q12.65-5.05 11.05-2.15L11.05-2.15Q10.2-0.65 8.85 0.23 7.5 1.1 5.85 1.1L5.85 1.1ZM32.75 1.3Q32.25 1.3 31.95 0.8 31.65 0.3 31.65-0.65L31.65-0.65 31.6-8.05Q31.55-9 31.55-11.2L31.55-11.2Q31.45-15.85 31.45-21.7L31.45-21.7 31.45-24.25Q31-21.85 29.9-17.5L29.9-17.5Q28.8-13 28.35-10.1L28.35-10.1 28.35-9.8 28.2-8.85Q28.1-7.75 27.7-6.6L27.7-6.6Q27.2-5.4 26.15-5.4L26.15-5.4Q24.35-5.4 24.35-10.1L24.35-10.1Q24.35-12.7 23.82-15.68 23.3-18.65 22.15-23L22.15-23 20.65-28.6 20.55-22.6Q20.55-19.9 20.8-12.3L20.8-12.3 20.9-8.9 21-2.05Q21-1 20.25-0.15L20.25-0.15Q19-0.15 18.52-0.93 18.05-1.7 18.05-3.2L18.05-3.2 18.15-7.3Q18.3-10 18.3-11.35L18.3-11.35 18.2-21 18.1-30.7Q18.1-32.85 18.2-37.15L18.2-37.15 19.55-37.95Q19.95-37.9 20.35-37.38 20.75-36.85 21.25-35.7L21.25-35.7Q22.5-32.6 24.5-23.3L24.5-23.3Q24.8-22 24.9-21.15L24.9-21.15Q25.5-18.25 25.75-16.75L25.75-16.75 26.5-12.9 26.85-14.55 27.8-18.65Q28.6-22.25 29.12-24.95 29.65-27.65 30.15-30.8L30.15-30.8Q30.7-34.55 30.85-37.05L30.85-37.05 30.85-37.35Q30.95-38 31.45-38.38 31.95-38.75 32.65-38.75L32.65-38.75Q33.1-38.75 33.45-38.35 33.8-37.95 33.8-37.5L33.8-37.5Q33.8-31.5 34.25-19.55L34.25-19.55Q34.5-13.7 34.6-8.1L34.6-8.1Q34.7-5.55 34.7-1.65L34.7-1.65Q34.7-0.5 34.1 0.4 33.5 1.3 32.75 1.3L32.75 1.3ZM50.9 0Q50.1 0 49.72-0.3 49.35-0.6 49.35-1.3L49.35-1.3 49.35-7.85Q48.7-8.3 46.9-8.65 45.1-9 43.5-9.1L43.5-9.1Q42.95-8.05 42.7-6.55L42.7-6.55 42.5-5.55Q42.45-5.2 42.2-4 41.95-2.8 41.65-1.93 41.35-1.05 41.05-0.55L41.05-0.55Q39.15-0.55 38.85-1.55L38.85-1.55Q39.4-2.35 40.1-6.25L40.1-6.25 41.75-15.4Q42.85-21.9 43.77-26.5 44.7-31.1 45.75-34.2L45.75-34.2Q46.9-37.65 47.95-37.65L47.95-37.65Q49-37.65 49.55-37.25L49.55-37.25Q49.55-35.25 50.5-27.6L50.5-27.6Q51.5-20.1 51.5-17.35L51.5-17.35Q51.5-14.7 52.05-9.75L52.05-9.75Q52.55-4.7 52.55-1.7L52.55-1.7Q52.55 0 50.9 0L50.9 0ZM48.3-10.75Q48.7-10.75 49.3-10.9L49.3-10.9Q49.15-13.1 48.8-16.35L48.8-16.35Q47.65-27.65 47.65-30.2L47.65-30.2 47.65-30.6Q47.15-30.1 46.27-26.08 45.4-22.05 44.65-17.45 43.9-12.85 43.85-11.35L43.85-11.35Q45.95-10.75 48.3-10.75L48.3-10.75ZM67.74 0.5Q66.79 0.5 65.89-0.85L65.89-0.85 65.89-1Q65.74-3.65 64.99-6.9 64.24-10.15 62.79-14.75L62.79-14.75Q61.69-18.2 60.94-20.95L60.94-20.95 60.94-1.25Q60.94-0.45 60.67-0.08 60.39 0.3 59.59 0.3L59.59 0.3Q58.99 0.3 58.64-0.08 58.29-0.45 58.29-1.05L58.29-1.05 58.29-1.45 58.39-16.15Q58.49-22.65 58.49-30.8L58.49-30.8 58.49-36.95Q58.49-37.55 58.74-37.77 58.99-38 59.79-38L59.79-38Q61.04-38 62.09-37.52 63.14-37.05 63.89-36.2L63.89-36.2Q65.44-34.45 65.89-32L65.89-32Q66.09-31 66.09-29.7L66.09-29.7Q66.09-28.95 65.97-28.05 65.84-27.15 65.79-26.9L65.79-26.9Q65.69-26.4 65.34-25.4 64.99-24.4 64.89-24.1L64.89-24.1 64.29-22.7 63.79-21.4Q63.84-19.6 64.42-16.85 64.99-14.1 65.69-11.75L65.69-11.75Q66.19-10.1 67.49-6.25L67.49-6.25 68.94-1.85 68.94-1.75Q68.94-0.9 68.79-0.3L68.79-0.3Q68.64 0.5 67.74 0.5L67.74 0.5ZM60.84-23.2Q61.54-23.9 62.54-25.15L62.54-25.15 63.29-29.45Q63.34-29.7 63.34-30.15L63.34-30.15Q63.34-31.6 62.79-33.5L62.79-33.5Q62.49-34.4 62.02-35.02 61.54-35.65 61.04-35.7L61.04-35.7 60.94-30.7Q60.79-27.35 60.79-25.5L60.79-25.5Q60.79-23.75 60.84-23.2L60.84-23.2ZM76.69 0.35Q75.94 0.35 75.52-0.38 75.09-1.1 75.09-2.15L75.09-2.15Q75.09-3.8 75.29-6.2L75.29-6.2 75.39-7.5 75.49-10.15Q75.49-11.9 75.14-17.95L75.14-17.95Q74.79-24 74.79-25.75L74.79-25.75Q74.79-25.9 74.82-26.33 74.84-26.75 74.84-27.65L74.84-27.65Q74.89-28.65 74.89-30.1L74.89-30.1Q74.89-33.75 74.39-34.75L74.39-34.75Q74.09-34.75 73.09-34.6L73.09-34.6 71.69-34.5Q71.04-34.5 70.54-34.88 70.04-35.25 70.04-35.85L70.04-35.85Q70.04-36.45 71.24-36.9L71.24-36.9Q72.99-37.5 77.19-37.75L77.19-37.75Q78.89-37.85 79.24-37.85L79.24-37.85Q79.84-37.85 80.34-37.45 80.84-37.05 80.84-36.45L80.84-36.45Q80.84-35.85 80.42-35.48 79.99-35.1 79.34-35.1L79.34-35.1 78.44-35.15Q78.04-35.2 77.54-35.2L77.54-35.2 77.04-35.2Q77.39-31.8 77.39-29.05L77.39-29.05 77.34-25.85Q77.29-24.4 77.29-22.6L77.29-22.6Q77.29-20.2 77.49-16.85L77.49-16.85Q77.74-12.7 77.74-11.1L77.74-11.1Q77.74-9.2 77.94-6.6L77.94-6.6Q78.14-3.95 78.14-2.1L78.14-2.1Q78.14 0.35 76.69 0.35L76.69 0.35ZM88.34 0.55Q87.69 0.55 87.16 0.08 86.64-0.4 86.64-1.05L86.64-1.05Q86.64-1.5 86.84-2.15L86.84-2.15Q86.99-2.85 86.99-3.2L86.99-3.2Q86.99-7.65 86.49-20.3L86.49-20.3Q85.99-31.1 85.99-37.35L85.99-37.35Q85.99-37.8 86.34-38.08 86.69-38.35 87.19-38.35L87.19-38.35Q87.79-38.35 88.24-37.93 88.69-37.5 88.69-36.9L88.69-36.9Q88.69-33.9 88.99-27.9L88.99-27.9Q89.24-21.25 89.24-18.9L89.24-18.9 89.29-18.3 89.29-17.7 89.29-17.35 89.29-17.1Q89.44-12.75 89.44-4.1L89.44-4.1 89.44-2.8 93.29-2.8Q94.34-2.05 94.34-1.3L94.34-1.3Q94.34-0.75 93.96-0.33 93.59 0.1 93.09 0.1L93.09 0.1Q92.94 0.1 92.54 0L92.54 0 92.34-0.05Q92.04 0 91.39 0L91.39 0 90.54 0Q90.19-0.05 89.74-0.05L89.74-0.05Q89.24 0.55 88.34 0.55L88.34 0.55ZM101.39 0.3Q100.44 0.3 99.74 0.05L99.74 0.05Q98.89-0.2 98.89-1.35L98.89-1.35 98.89-30.4Q98.89-31.25 98.59-32.95L98.59-32.95Q98.24-34.5 98.24-35.5L98.24-35.5 98.24-35.65Q99.09-37.05 99.49-37.45L99.49-37.45Q100.19-37.45 101.34-37.65L101.34-37.65Q102.39-37.85 103.19-37.85L103.19-37.85Q103.99-37.85 104.74-37.38 105.49-36.9 105.49-36.25L105.49-36.25Q105.49-34.75 103.19-34.75L103.19-34.75 102.49-34.75Q102.19-34.8 101.79-34.8L101.79-34.8Q101.34-34.8 101.24-34.75L101.24-34.75Q101.24-33.05 101.44-30.65L101.44-30.65 101.54-29.25 101.64-26.5Q101.64-25.55 101.49-23.6L101.49-23.6 101.39-20.8 102.09-20.95Q103.09-21.25 103.74-21.25L103.74-21.25Q104.29-21.25 104.74-20.83 105.19-20.4 105.19-19.85L105.19-19.85Q105.19-19.25 104.81-18.78 104.44-18.3 103.89-18.3L103.89-18.3 103.29-18.35 102.64-18.35Q101.89-18.35 101.59-18L101.59-18 101.59-2.55 104.39-2.7Q107.24-2.7 107.24-1.4L107.24-1.4 107.24-1.2Q106.94-0.6 106.14-0.23 105.34 0.15 104.59 0.25L104.59 0.25 102.94 0.3 101.39 0.3ZM122.33 0Q121.53 0 121.16-0.3 120.78-0.6 120.78-1.3L120.78-1.3 120.78-7.85Q120.13-8.3 118.33-8.65 116.53-9 114.93-9.1L114.93-9.1Q114.38-8.05 114.13-6.55L114.13-6.55 113.93-5.55Q113.88-5.2 113.63-4 113.38-2.8 113.08-1.93 112.78-1.05 112.48-0.55L112.48-0.55Q110.58-0.55 110.28-1.55L110.28-1.55Q110.83-2.35 111.53-6.25L111.53-6.25 113.18-15.4Q114.28-21.9 115.21-26.5 116.13-31.1 117.18-34.2L117.18-34.2Q118.33-37.65 119.38-37.65L119.38-37.65Q120.43-37.65 120.98-37.25L120.98-37.25Q120.98-35.25 121.93-27.6L121.93-27.6Q122.93-20.1 122.93-17.35L122.93-17.35Q122.93-14.7 123.48-9.75L123.48-9.75Q123.98-4.7 123.98-1.7L123.98-1.7Q123.98 0 122.33 0L122.33 0ZM119.73-10.75Q120.13-10.75 120.73-10.9L120.73-10.9Q120.58-13.1 120.23-16.35L120.23-16.35Q119.08-27.65 119.08-30.2L119.08-30.2 119.08-30.6Q118.58-30.1 117.71-26.08 116.83-22.05 116.08-17.45 115.33-12.85 115.28-11.35L115.28-11.35Q117.38-10.75 119.73-10.75L119.73-10.75ZM139.18 0.5Q138.23 0.5 137.33-0.85L137.33-0.85 137.33-1Q137.18-3.65 136.43-6.9 135.68-10.15 134.23-14.75L134.23-14.75Q133.13-18.2 132.38-20.95L132.38-20.95 132.38-1.25Q132.38-0.45 132.11-0.08 131.83 0.3 131.03 0.3L131.03 0.3Q130.43 0.3 130.08-0.08 129.73-0.45 129.73-1.05L129.73-1.05 129.73-1.45 129.83-16.15Q129.93-22.65 129.93-30.8L129.93-30.8 129.93-36.95Q129.93-37.55 130.18-37.77 130.43-38 131.23-38L131.23-38Q132.48-38 133.53-37.52 134.58-37.05 135.33-36.2L135.33-36.2Q136.88-34.45 137.33-32L137.33-32Q137.53-31 137.53-29.7L137.53-29.7Q137.53-28.95 137.41-28.05 137.28-27.15 137.23-26.9L137.23-26.9Q137.13-26.4 136.78-25.4 136.43-24.4 136.33-24.1L136.33-24.1 135.73-22.7 135.23-21.4Q135.28-19.6 135.86-16.85 136.43-14.1 137.13-11.75L137.13-11.75Q137.63-10.1 138.93-6.25L138.93-6.25 140.38-1.85 140.38-1.75Q140.38-0.9 140.23-0.3L140.23-0.3Q140.08 0.5 139.18 0.5L139.18 0.5ZM132.28-23.2Q132.98-23.9 133.98-25.15L133.98-25.15 134.73-29.45Q134.78-29.7 134.78-30.15L134.78-30.15Q134.78-31.6 134.23-33.5L134.23-33.5Q133.93-34.4 133.46-35.02 132.98-35.65 132.48-35.7L132.48-35.7 132.38-30.7Q132.23-27.35 132.23-25.5L132.23-25.5Q132.23-23.75 132.28-23.2L132.28-23.2ZM156.73 0.75Q155.73 0.75 152.63-9.55L152.63-9.55Q149.13-21.6 146.58-31.7L146.58-31.7 146.58-15.3Q146.58-13.2 146.98-8.15L146.98-8.15Q147.33-2.65 147.33-1.05L147.33-1.05Q147.33-0.6 146.78-0.28 146.23 0.05 145.53 0.05L145.53 0.05Q144.48 0.05 144.48-0.75L144.48-0.75 144.58-2.2Q144.68-3.8 144.68-4.3L144.68-4.3Q144.68-6.95 144.38-12.7L144.38-12.7Q144.08-18.55 144.08-19.8L144.08-19.8 144.08-26.2Q144.08-27.75 144.23-30.8L144.23-30.8Q144.43-33.45 144.43-35.4L144.43-35.4 144.43-35.7Q144.43-38.2 145.53-38.2L145.53-38.2Q146.18-38.2 147.18-36L147.18-36Q148.83-32.4 151.38-23.1L151.38-23.1Q152.83-17.7 154.78-9.2L154.78-9.2Q154.73-9.4 155.58-5.75L155.58-5.75 155.63-5.5Q155.63-10.35 155.73-14.2L155.73-14.2 155.83-22.9 155.83-37.7Q156.03-38.95 157.43-38.95L157.43-38.95Q158.78-38.95 158.78-37L158.78-37 158.78-36.7Q158.48-36.1 158.48-35.25L158.48-35.25Q158.48-32.2 158.33-26.05L158.33-26.05Q158.18-19.85 158.18-16.75L158.18-16.75 158.18-1.5Q158.18-0.7 157.75 0.03 157.33 0.75 156.73 0.75L156.73 0.75Z" opacity="1" transform="matrix(1,0,0,1,0,0)" fill="#ffffff" class="wordmark-text-0" data-fill-palette-color="quaternary" id="text-0"></path></svg></g></svg></g></svg></g></svg></g><g><svg viewBox="0 0 90.08342294028554 72.63055403251514" height="72.63055403251514" width="90.08342294028554"><g><svg xmlns="http://www.w3.org/2000/svg" xmlns:xlink="http://www.w3.org/1999/xlink" version="1.1" x="8" y="0" viewBox="6.735593140231467 7.7439333385674916 82.5138356950292 80.89563581192157" enable-background="new 0 0 96 96" xml:space="preserve" height="72.63055403251514" width="74.08342294028554" class="icon-icon-0" data-fill-palette-color="quaternary" id="icon-0"><g fill="#7902f5" data-fill-palette-color="quaternary"><g fill="#7902f5" data-fill-palette-color="quaternary"><g fill="#7902f5" data-fill-palette-color="quaternary"><path fill="#ffffff" d="M76.414 11.271c3.166 2.515 6.73 4.455 9.667 7.251 0-0.589 0-1.178 0-1.768-6.21 4.873-12.963 8.767-20.583 4.292-4.189-2.46-0.281-4.726 1.922-6.455 2.851-2.237 5.261-6.004 9.247-3.125 1.31 0.946 2.556-1.224 1.262-2.158-4.051-2.925-6.822-1.396-10.186 1.696-2.01 1.847-7.988 4.757-7.005 8.331 1.148 4.174 7.253 6.001 10.966 6.394 6.004 0.635 11.746-3.755 16.145-7.207 0.528-0.414 0.45-1.339 0-1.768-2.95-2.81-6.489-4.727-9.667-7.251C76.933 8.512 75.151 10.269 76.414 11.271L76.414 11.271z" data-fill-palette-color="quaternary"></path></g></g><g fill="#7902f5" data-fill-palette-color="quaternary"><g fill="#7902f5" data-fill-palette-color="quaternary"><path fill="#ffffff" d="M84.723 19.696c0.735 3.462 1.942 6.8 2.026 10.372 0.038 1.609 2.538 1.613 2.5 0-0.09-3.803-1.333-7.35-2.116-11.037C86.798 17.454 84.389 18.123 84.723 19.696L84.723 19.696z" data-fill-palette-color="quaternary"></path></g></g><g fill="#7902f5" data-fill-palette-color="quaternary"><g fill="#7902f5" data-fill-palette-color="quaternary"><path fill="#ffffff" d="M64.134 23.566c-1.453 2.655-2.202 5.541-1.899 8.573 0.158 1.588 2.66 1.604 2.5 0-0.261-2.615 0.3-5.013 1.558-7.311C67.067 23.414 64.908 22.152 64.134 23.566L64.134 23.566z" data-fill-palette-color="quaternary"></path></g></g><g fill="#7902f5" data-fill-palette-color="quaternary"><g fill="#7902f5" data-fill-palette-color="quaternary"><path fill="#ffffff" d="M62.854 33.218c3.306 1.691 6.564 4.057 10.313 4.616 1.576 0.235 2.254-2.174 0.664-2.411-3.54-0.527-6.59-2.765-9.715-4.363C62.683 30.327 61.418 32.484 62.854 33.218L62.854 33.218z" data-fill-palette-color="quaternary"></path></g></g><g fill="#7902f5" data-fill-palette-color="quaternary"><g fill="#7902f5" data-fill-palette-color="quaternary"><path fill="#ffffff" d="M74.129 37.708c2.881-1.621 5.941-2.955 8.539-5.03 1.26-1.006-0.521-2.763-1.768-1.768-2.411 1.925-5.359 3.134-8.033 4.639C71.463 36.339 72.723 38.5 74.129 37.708L74.129 37.708z" data-fill-palette-color="quaternary"></path></g></g><g fill="#7902f5" data-fill-palette-color="quaternary"><g fill="#7902f5" data-fill-palette-color="quaternary"><path fill="#ffffff" d="M82.99 31.461c-0.508-2.863-1.6-5.723-1.681-8.645-0.045-1.609-2.545-1.613-2.5 0 0.088 3.158 1.222 6.22 1.771 9.31C80.861 33.712 83.27 33.038 82.99 31.461L82.99 31.461z" data-fill-palette-color="quaternary"></path></g></g><g fill="#7902f5" data-fill-palette-color="quaternary"><g fill="#7902f5" data-fill-palette-color="quaternary"><path fill="#ffffff" d="M72.293 36.961c2.042 10.268 4.488 20.217 5.577 30.65 0.499 4.775 1.918 11.453-3.668 13.399-3.265 1.139-6.776 1.352-10.163 1.911-13.231 2.183-27.859 4.741-41.194 2.188-2.388-0.457-4.86-1.246-6.589-3.026-2.679-2.758-1.47-9.669-2.438-13.38-1.676-6.424-3.636-12.398-4.32-19.058-0.606-5.902-0.895-13.608 2.219-18.857 4.092-6.899 17.316-4.909 24.03-5.44 9.756-0.772 19.704-1.543 29.466-0.503 1.603 0.171 1.586-2.331 0-2.5-11.355-1.21-22.652 0.348-33.994 0.768-7.508 0.278-16.639-0.239-21.661 6.414-3.147 4.169-2.852 11.518-2.783 16.425 0.096 6.847 1.687 13.375 3.627 19.892 1.033 3.47 1.713 6.698 1.854 10.319 0.077 1.98 0.244 4.169 1.12 5.983 1.131 2.341 3.271 3.562 5.607 4.486 7.249 2.868 16.347 1.983 23.913 1.438 7.914-0.569 15.658-2.065 23.517-2.99 3.924-0.462 8.102-1.059 11.584-3.026 3.024-1.71 2.823-6.656 2.766-9.563-0.243-12.336-3.672-24.183-6.061-36.195C74.389 34.716 71.98 35.386 72.293 36.961L72.293 36.961z" data-fill-palette-color="quaternary"></path></g></g><g fill="#7902f5" data-fill-palette-color="quaternary"><g fill="#7902f5" data-fill-palette-color="quaternary"><path fill="#ffffff" d="M38.411 43.188c-0.762 7.459-1.322 15.125 0.735 22.429 0.223 0.79 1.129 1.14 1.836 0.747 6.124-3.392 12.703-6.357 17.518-11.59 0.468-0.509 0.487-1.262 0-1.768-5.057-5.259-11.599-9.593-18.209-12.623-1.455-0.667-2.726 1.487-1.262 2.158 6.441 2.953 12.782 7.115 17.703 12.232 0-0.589 0-1.179 0-1.768-4.664 5.067-11.082 7.914-17.012 11.199 0.612 0.249 1.224 0.498 1.836 0.747-1.996-7.082-1.385-14.538-0.646-21.765C41.075 41.584 38.573 41.6 38.411 43.188L38.411 43.188z" data-fill-palette-color="quaternary"></path></g></g></g></svg></g></svg></g></svg></g></svg></g></svg></g><defs></defs></svg><rect width="512" height="320" fill="none" stroke="none" visibility="hidden"></rect></g></svg></g></svg>